<svg t="1747549438478" class="icon" viewBox="0 0 1024 1024" version="1.1" xmlns="http://www.w3.org/2000/svg" p-id="1178" data-spm-anchor-id="a313x.collections_detail.0.i0.1fdb3a81M5jKwX" width="200" height="200"><path d="M512 903.3c-1.2 0-2.5 0-3.7-0.1-17.9-1-34-8.7-45.5-21.8L117.1 533.5c-30.4-31.4-32.3-81.2-4.6-112L263.8 213c16.8-18 40.9-28.1 65.2-28.2h367c25.7 0 49 10.7 67.4 30.9l1.5 1.9L910.5 419c29.7 33 28.6 83.1-2.8 114.7L558.8 884.8c-13.2 12-29.8 18.5-46.8 18.5zM296.9 242.2L145.7 450.4c-12.9 13.8-11.6 37.3 2.9 52.2L495 851.3c4.6 5.1 9.8 7.6 15.8 7.9 6.5 0.4 12.9-1.9 17.7-6.2l348-350.3c15-15.1 15.4-39.2 0.9-54.8l-1.7-2.1-145.6-201.3c-9.7-10.4-21.2-15.6-34-15.6H328.8c-12.1-0.1-23.6 4.8-31.9 13.3z" fill="#1296db" p-id="1179"></path><path d="M512.4 669.5c-7.1 0-14.2-2.7-19.6-8.1L391.1 559.7c-8.6-8.6-8.6-22.5 0-31.1 8.6-8.6 22.5-8.6 31.1 0l90.1 90.1 90.1-90.1c8.6-8.6 22.5-8.6 31.1 0 8.6 8.6 8.6 22.5 0 31.1L531.9 661.4c-5.4 5.4-12.5 8.1-19.5 8.1z" fill="#1296db" p-id="1180" data-spm-anchor-id="a313x.collections_detail.0.i1.1fdb3a81M5jKwX"></path></svg>